<svg width="512" height="512" viewBox="0 0 512 512" fill="none" xmlns="http://www.w3.org/2000/svg">
<path d="M511.746 118.353C509.503 176.006 474.688 254.878 407.398 355.081C337.84 459.694 278.913 512 230.688 512C200.822 512 175.588 480.087 154.962 416.461C141.212 358.011 127.486 299.561 113.589 241.254C98.3021 177.627 81.894 145.715 64.2182 145.715C60.4392 145.715 46.9812 155.101 24.1123 173.588L0 137.608C25.2338 111.839 50.2238 86.2693 74.7505 60.5286C108.396 26.824 133.8 9.18952 150.623 7.39763C190.436 3.04589 214.987 34.4467 224.252 101.97C234.199 174.669 241.074 220.007 244.999 237.641C256.507 298.054 269.136 328.175 282.862 328.175C293.517 328.175 309.656 308.606 331.111 269.412C352.566 230.218 364.049 200.438 365.61 180.017C368.682 146.17 357.198 129.332 331.111 129.332C318.921 129.332 306.292 132.574 293.248 139.059C318.36 43.6905 366.439 -2.64266 437.41 0.116289C489.999 1.73752 514.818 41.2445 511.746 118.324V118.353Z" fill="#007BFF"/>
</svg>
